# Blender v3.1.2 OBJ File: ''
# www.blender.org
mtllib Nave Lv1.mtl
o Cubo.011
v -3.744334 0.241170 0.235974
v -3.744334 0.480007 0.235974
v -3.744334 0.241170 -0.235974
v -3.744334 0.480007 -0.235974
v -3.117232 0.241170 0.235974
v -3.117232 0.480007 0.235974
v -3.117232 0.241170 -0.235974
v -3.117232 0.480007 -0.235974
vt 0.375000 0.000000
vt 0.625000 0.000000
vt 0.625000 0.250000
vt 0.375000 0.250000
vt 0.625000 0.500000
vt 0.375000 0.500000
vt 0.625000 0.750000
vt 0.375000 0.750000
vt 0.625000 1.000000
vt 0.375000 1.000000
vt 0.125000 0.500000
vt 0.125000 0.750000
vt 0.875000 0.500000
vt 0.875000 0.750000
vn -1.0000 0.0000 0.0000
vn 0.0000 0.0000 -1.0000
vn 1.0000 0.0000 0.0000
vn 0.0000 0.0000 1.0000
vn 0.0000 -1.0000 0.0000
vn 0.0000 1.0000 0.0000
usemtl Metal_escuro
s off
f 1/1/1 2/2/1 4/3/1 3/4/1
f 3/4/2 4/3/2 8/5/2 7/6/2
f 7/6/3 8/5/3 6/7/3 5/8/3
f 5/8/4 6/7/4 2/9/4 1/10/4
f 3/11/5 7/6/5 5/8/5 1/12/5
f 8/5/6 4/13/6 2/14/6 6/7/6
o Cubo.012
v -4.445476 0.307896 0.096330
v -4.445476 0.374781 0.096330
v -4.445476 0.307896 -0.096330
v -4.445476 0.374781 -0.096330
v -3.557901 0.307896 0.096330
v -3.557901 0.374781 0.096330
v -3.557901 0.307896 -0.096330
v -3.557901 0.374781 -0.096330
vt 0.375000 0.000000
vt 0.625000 0.000000
vt 0.625000 0.250000
vt 0.375000 0.250000
vt 0.625000 0.500000
vt 0.375000 0.500000
vt 0.625000 0.750000
vt 0.375000 0.750000
vt 0.625000 1.000000
vt 0.375000 1.000000
vt 0.125000 0.500000
vt 0.125000 0.750000
vt 0.875000 0.500000
vt 0.875000 0.750000
vn -1.0000 0.0000 0.0000
vn 0.0000 0.0000 -1.0000
vn 1.0000 0.0000 0.0000
vn 0.0000 0.0000 1.0000
vn 0.0000 -1.0000 0.0000
vn 0.0000 1.0000 0.0000
usemtl Metal_claro
s off
f 9/15/7 10/16/7 12/17/7 11/18/7
f 11/18/8 12/17/8 16/19/8 15/20/8
f 15/20/9 16/19/9 14/21/9 13/22/9
f 13/22/10 14/21/10 10/23/10 9/24/10
f 11/25/11 15/20/11 13/22/11 9/26/11
f 16/19/12 12/27/12 10/28/12 14/21/12
o Cubo.013
v -4.674484 0.292193 0.095908
v -4.674484 0.389265 0.095908
v -4.674484 0.292193 -0.095908
v -4.674484 0.389265 -0.095908
v -4.351662 0.279254 0.121476
v -4.351662 0.402204 0.121476
v -4.351662 0.279254 -0.121476
v -4.351662 0.402204 -0.121476
v -4.674484 0.279254 -0.121476
v -4.674484 0.279254 0.121476
v -4.674484 0.402204 0.121476
v -4.674484 0.402204 -0.121476
v -4.573175 0.292193 -0.095908
v -4.573175 0.292193 0.095908
v -4.573175 0.389265 0.095908
v -4.573175 0.389265 -0.095908
vt 0.598691 0.223691
vt 0.401309 0.223691
vt 0.401309 0.223691
vt 0.598691 0.223691
vt 0.375000 0.250000
vt 0.625000 0.250000
vt 0.625000 0.500000
vt 0.375000 0.500000
vt 0.625000 0.750000
vt 0.375000 0.750000
vt 0.625000 1.000000
vt 0.375000 1.000000
vt 0.125000 0.500000
vt 0.125000 0.750000
vt 0.875000 0.500000
vt 0.875000 0.750000
vt 0.401309 0.026309
vt 0.375000 0.000000
vt 0.598691 0.026309
vt 0.625000 0.000000
vt 0.401309 0.026309
vt 0.598691 0.026309
vn 0.0000 0.0000 1.0000
vn 0.0000 0.0000 -1.0000
vn 1.0000 0.0000 0.0000
vn 0.0000 -1.0000 0.0000
vn 0.0000 1.0000 0.0000
vn -1.0000 0.0000 0.0000
usemtl Metal_escuro
s off
f 20/29/13 19/30/13 29/31/13 32/32/13
f 25/33/14 28/34/14 24/35/14 23/36/14
f 23/36/15 24/35/15 22/37/15 21/38/15
f 21/38/13 22/37/13 27/39/13 26/40/13
f 25/41/16 23/36/16 21/38/16 26/42/16
f 24/35/17 28/43/17 27/44/17 22/37/17
f 17/45/18 19/30/18 25/33/18 26/46/18
f 18/47/18 17/45/18 26/46/18 27/48/18
f 20/29/18 18/47/18 27/48/18 28/34/18
f 19/30/18 20/29/18 28/34/18 25/33/18
f 30/49/18 31/50/18 32/32/18 29/31/18
f 17/45/14 18/47/14 31/50/14 30/49/14
f 18/47/16 20/29/16 32/32/16 31/50/16
f 19/30/17 17/45/17 30/49/17 29/31/17
o Cubo.014
v -3.576288 0.298023 0.344148
v -3.576288 0.389890 0.344148
v -3.576288 0.298023 0.169559
v -3.576288 0.389890 0.169559
v -2.772913 0.298023 0.344148
v -2.772913 0.389890 0.344148
v -2.772913 0.298023 0.169559
v -2.772913 0.389890 0.169559
vt 0.375000 0.000000
vt 0.625000 0.000000
vt 0.625000 0.250000
vt 0.375000 0.250000
vt 0.625000 0.500000
vt 0.375000 0.500000
vt 0.625000 0.750000
vt 0.375000 0.750000
vt 0.625000 1.000000
vt 0.375000 1.000000
vt 0.125000 0.500000
vt 0.125000 0.750000
vt 0.875000 0.500000
vt 0.875000 0.750000
vn -1.0000 0.0000 0.0000
vn 0.0000 0.0000 -1.0000
vn 1.0000 0.0000 0.0000
vn 0.0000 0.0000 1.0000
vn 0.0000 -1.0000 0.0000
vn 0.0000 1.0000 0.0000
usemtl Metal_claro
s off
f 33/51/19 34/52/19 36/53/19 35/54/19
f 35/54/20 36/53/20 40/55/20 39/56/20
f 39/56/21 40/55/21 38/57/21 37/58/21
f 37/58/22 38/57/22 34/59/22 33/60/22
f 35/61/23 39/56/23 37/58/23 33/62/23
f 40/55/24 36/63/24 34/64/24 38/57/24
o Cubo.015
v -3.576288 0.298023 -0.169559
v -3.576288 0.389890 -0.169559
v -3.576288 0.298023 -0.344149
v -3.576288 0.389890 -0.344149
v -2.772913 0.298023 -0.169559
v -2.772913 0.389890 -0.169559
v -2.772913 0.298023 -0.344149
v -2.772913 0.389890 -0.344149
vt 0.375000 0.000000
vt 0.625000 0.000000
vt 0.625000 0.250000
vt 0.375000 0.250000
vt 0.625000 0.500000
vt 0.375000 0.500000
vt 0.625000 0.750000
vt 0.375000 0.750000
vt 0.625000 1.000000
vt 0.375000 1.000000
vt 0.125000 0.500000
vt 0.125000 0.750000
vt 0.875000 0.500000
vt 0.875000 0.750000
vn -1.0000 0.0000 0.0000
vn 0.0000 0.0000 -1.0000
vn 1.0000 0.0000 0.0000
vn 0.0000 0.0000 1.0000
vn 0.0000 -1.0000 0.0000
vn 0.0000 1.0000 0.0000
usemtl Metal_claro
s off
f 41/65/25 42/66/25 44/67/25 43/68/25
f 43/68/26 44/67/26 48/69/26 47/70/26
f 47/70/27 48/69/27 46/71/27 45/72/27
f 45/72/28 46/71/28 42/73/28 41/74/28
f 43/75/29 47/70/29 45/72/29 41/76/29
f 48/69/30 44/77/30 42/78/30 46/71/30
o Cubo.016
v -3.350119 0.254199 0.161983
v -3.350119 0.451650 0.161983
v -3.350119 0.254199 -0.161983
v -3.350119 0.451650 -0.161983
v -3.026154 0.254199 0.161983
v -3.026154 0.451650 0.161983
v -3.026154 0.254199 -0.161983
v -3.026154 0.451650 -0.161983
vt 0.375000 0.000000
vt 0.625000 0.000000
vt 0.625000 0.250000
vt 0.375000 0.250000
vt 0.625000 0.500000
vt 0.375000 0.500000
vt 0.625000 0.750000
vt 0.375000 0.750000
vt 0.625000 1.000000
vt 0.375000 1.000000
vt 0.125000 0.500000
vt 0.125000 0.750000
vt 0.875000 0.500000
vt 0.875000 0.750000
vn -1.0000 0.0000 0.0000
vn 0.0000 0.0000 -1.0000
vn 1.0000 0.0000 0.0000
vn 0.0000 0.0000 1.0000
vn 0.0000 -1.0000 0.0000
vn 0.0000 1.0000 0.0000
usemtl Foguete
s off
f 49/79/31 50/80/31 52/81/31 51/82/31
f 51/82/32 52/81/32 56/83/32 55/84/32
f 55/84/33 56/83/33 54/85/33 53/86/33
f 53/86/34 54/85/34 50/87/34 49/88/34
f 51/89/35 55/84/35 53/86/35 49/90/35
f 56/83/36 52/91/36 50/92/36 54/85/36
